<mxfile host="65bd71144e">
    <diagram id="58i1acVl0VMw1AtMxUrh" name="Page-1">
        <mxGraphModel dx="994" dy="740" grid="1" gridSize="10" guides="1" tooltips="1" connect="1" arrows="1" fold="1" page="1" pageScale="1" pageWidth="827" pageHeight="1169" background="none" math="0" shadow="0">
            <root>
                <mxCell id="0"/>
                <mxCell id="1" parent="0"/>
                <mxCell id="19" value="Sends prompt and gets back the image" style="text;html=1;align=center;verticalAlign=middle;resizable=0;points=[];autosize=1;strokeColor=none;fillColor=none;" parent="1" vertex="1">
                    <mxGeometry x="535" y="185" width="230" height="30" as="geometry"/>
                </mxCell>
                <mxCell id="29" style="edgeStyle=orthogonalEdgeStyle;html=1;entryX=0;entryY=0.75;entryDx=0;entryDy=0;entryPerimeter=0;startArrow=none;startFill=0;endArrow=classicThin;endFill=1;exitX=0;exitY=0.5;exitDx=0;exitDy=0;" parent="1" source="2" target="11" edge="1">
                    <mxGeometry relative="1" as="geometry">
                        <Array as="points">
                            <mxPoint x="10" y="499"/>
                        </Array>
                    </mxGeometry>
                </mxCell>
                <mxCell id="2" value="" style="aspect=fixed;perimeter=ellipsePerimeter;html=1;align=center;shadow=0;dashed=0;spacingTop=3;image;image=img/lib/active_directory/user.svg;strokeWidth=1;" parent="1" vertex="1">
                    <mxGeometry x="10" y="250" width="18.5" height="50" as="geometry"/>
                </mxCell>
                <mxCell id="5" value="&lt;b&gt;&lt;font color=&quot;#330000&quot;&gt;AWS Account&lt;/font&gt;&lt;/b&gt;" style="points=[[0,0],[0.25,0],[0.5,0],[0.75,0],[1,0],[1,0.25],[1,0.5],[1,0.75],[1,1],[0.75,1],[0.5,1],[0.25,1],[0,1],[0,0.75],[0,0.5],[0,0.25]];outlineConnect=0;gradientColor=none;html=1;whiteSpace=wrap;fontSize=12;fontStyle=0;container=1;pointerEvents=0;collapsible=0;recursiveResize=0;shape=mxgraph.aws4.group;grIcon=mxgraph.aws4.group_account;strokeColor=#331A00;fillColor=none;verticalAlign=top;align=left;spacingLeft=30;fontColor=#CD2264;dashed=0;strokeWidth=5;" parent="1" vertex="1">
                    <mxGeometry x="80" y="100" width="700" height="470" as="geometry"/>
                </mxCell>
                <mxCell id="15" style="edgeStyle=none;html=1;dashed=1;strokeWidth=1;fontColor=#0000CC;" parent="5" source="6" target="8" edge="1">
                    <mxGeometry relative="1" as="geometry"/>
                </mxCell>
                <mxCell id="25" style="edgeStyle=orthogonalEdgeStyle;html=1;entryX=1;entryY=0.75;entryDx=0;entryDy=0;entryPerimeter=0;startArrow=none;startFill=0;endArrow=classicThin;endFill=1;" parent="5" source="6" target="4" edge="1">
                    <mxGeometry relative="1" as="geometry">
                        <Array as="points">
                            <mxPoint x="237" y="193"/>
                        </Array>
                    </mxGeometry>
                </mxCell>
                <mxCell id="6" value="" style="sketch=0;points=[[0,0,0],[0.25,0,0],[0.5,0,0],[0.75,0,0],[1,0,0],[0,1,0],[0.25,1,0],[0.5,1,0],[0.75,1,0],[1,1,0],[0,0.25,0],[0,0.5,0],[0,0.75,0],[1,0.25,0],[1,0.5,0],[1,0.75,0]];outlineConnect=0;fontColor=#232F3E;gradientColor=#F78E04;gradientDirection=north;fillColor=#D05C17;strokeColor=#ffffff;dashed=0;verticalLabelPosition=bottom;verticalAlign=top;align=center;html=1;fontSize=12;fontStyle=0;aspect=fixed;shape=mxgraph.aws4.resourceIcon;resIcon=mxgraph.aws4.lambda;" parent="5" vertex="1">
                    <mxGeometry x="304" y="136" width="78" height="78" as="geometry"/>
                </mxCell>
                <mxCell id="14" style="edgeStyle=none;html=1;strokeWidth=1;fontColor=#0000CC;" parent="5" source="4" target="6" edge="1">
                    <mxGeometry relative="1" as="geometry"/>
                </mxCell>
                <mxCell id="4" value="" style="sketch=0;points=[[0,0,0],[0.25,0,0],[0.5,0,0],[0.75,0,0],[1,0,0],[0,1,0],[0.25,1,0],[0.5,1,0],[0.75,1,0],[1,1,0],[0,0.25,0],[0,0.5,0],[0,0.75,0],[1,0.25,0],[1,0.5,0],[1,0.75,0]];outlineConnect=0;fontColor=#232F3E;gradientColor=#FF4F8B;gradientDirection=north;fillColor=#BC1356;strokeColor=#ffffff;dashed=0;verticalLabelPosition=bottom;verticalAlign=top;align=center;html=1;fontSize=12;fontStyle=0;aspect=fixed;shape=mxgraph.aws4.resourceIcon;resIcon=mxgraph.aws4.api_gateway;" parent="5" vertex="1">
                    <mxGeometry x="100" y="140" width="70" height="70" as="geometry"/>
                </mxCell>
                <mxCell id="18" style="edgeStyle=orthogonalEdgeStyle;html=1;dashed=1;strokeWidth=1;fontColor=#0000CC;startArrow=classic;startFill=1;fillColor=#d80073;strokeColor=#A50040;" parent="5" source="8" target="10" edge="1">
                    <mxGeometry relative="1" as="geometry"/>
                </mxCell>
                <mxCell id="20" style="edgeStyle=orthogonalEdgeStyle;html=1;entryX=1;entryY=0.5;entryDx=0;entryDy=0;entryPerimeter=0;startArrow=none;startFill=0;endArrow=classicThin;endFill=1;" parent="5" source="8" target="11" edge="1">
                    <mxGeometry relative="1" as="geometry">
                        <Array as="points">
                            <mxPoint x="550" y="379"/>
                        </Array>
                    </mxGeometry>
                </mxCell>
                <mxCell id="8" value="" style="shape=image;verticalLabelPosition=bottom;labelBackgroundColor=default;verticalAlign=top;aspect=fixed;imageAspect=0;image=data:image/png,iVBORw0KGgoAAAANSUhEUgAAAFgAAABYCAYAAABxlTA0AAAAAXNSR0IArs4c6QAAAIRlWElmTU0AKgAAAAgABQESAAMAAAABAAEAAAEaAAUAAAABAAAASgEbAAUAAAABAAAAUgEoAAMAAAABAAIAAIdpAAQAAAABAAAAWgAAAAAAAACQAAAAAQAAAJAAAAABAAOgAQADAAAAAQABAACgAgAEAAAAAQAAAFigAwAEAAAAAQAAAFgAAAAA9biphQAAAAlwSFlzAAAWJQAAFiUBSVIk8AAAKDFJREFUeAHtnWnQntV5348kkAAhhBCLJLSAJDaBEJtYbQzxgmunTmzGATtbXTdT21O7nfpDp8uk7uYkM2nTaZx8sOvpOOOZxPU6jbHjJTa2MZgdLBYhBIhNYpEAsWgFqf/f/7quc9/P+8ozzST9lqPnua9zruV/Lfe5z3NvL7T29+3/awVmgH7uH/3bg029GbFpM2aYLYY5Qc06xLj4SQ2R9oVTtHx43LGJQLhjnC4b+bOalRzfgFk6Ff8IK20Ku2ILV2kXQfWcI7bCOgQNMCJGqO+Ag6hys2ttZtI5qH/xUe9gfOFrADsonRpjEYIJau3UCzMrSSdogOFKY2NBrTmBk4PBX6oVztQYQTBk4dpfxi5exWqf9gt0yHssKMEzBS6c9rFlYZcRo5Q2yTHEGCMLHFgBiCrNwNExjp3XGGBxiaVoBMQ2+GV/SJqBAFz6hVO07MKvDXAmsZ2alg7U3MTzAEYWJTDLLjFSHjHA80cdzGKQqBKVbfIzBnNzExoVBzQ402Yw/Aq4EphIKiJIVsFg5NhMzWWcgRQtvE6NNdhhHCZBM8/EDDy7kaC7G/kov9DKYcCscJCF48CobdLEc4xijTG7FXzrHehxAGoW1IqiBw62w6IvFuvHwRnt4Awtx6IJjXhorDcAFEUCmtcenBqk4wzeA4L1icCKdmMUjRn24MxQHAQckSQtv0UD1luvfdInPVbFyCM8lFrHUmeMHe5lg+2UGLsNmMiTZkYiUQD0lHhoUCM0NfYMRhZ73BFKGLT4ndrQymj06Ak29mjZBS2doPDcS92wL1/G6H7FTeMJqkFhQcNn0O6/wpJCYdOjhS36HpoOEvX4pHCgpZua3bhwiLXiCieFiWoUmB5cK3Zx8MxOnvUKbKARAuYGAQYrs62lriXgh7BTJ2V1lNBOZXoYjWnqBdtb2wR70A8cm3Y8+zW+tTs27swp3xpMjZGx/0VAloeZtu7gGw0jOabqxxocIzu1IkD+BK0AOk1HGNgUSgf17AQpewtGuiiXrjs5Dp5RrZK4sux4YThgjXAidsIof9AaJ0UKtjamHg+8ZFoergIrINHDWA3qz2CrnuVW0QbNXCIswsof22ffamhOabDMTiBG5mljB4zpdxoGtgErlBxQDK2Jgb9Gs7JBzDRe2mEfYm87HlghCFoQxQ/ztM3YLGPTXU1ip4dBLWMYx2gd/ahFG+yHGVwB4xRFf0YU/+jklwTHSTI0zx7QoxP2Re3WduZIx0qdlvpgGvbYFZ7Nw8z+QtfIMZYCvMDGPpQdtx0ULzHRDwO82K6Pk+9MYFoXprq5sZ8cQPpYA0xyBpdBOktHoODUnzH4qG+nOAtNkcQoCl8QAeKtxvDMnEatXPJwHUYjnLIPWEcYfu0Go8BPF92H80ickKUtvIjQvhgZu/gJFDzg08dYy0L4fEJOOFHgMkilxEugNEBbbVyY6ovJB+HYZYwnMHHMJ2k6Kpxp1Hp5rjkFZ8JfwDm2UPO2x8sI7O4XCQCh7K4HObZb66de2hc/zMN+wBzGAQ3Y+DzY523h02d8kuuUsGIA0+eA2vQGUGqYPZwf53ksFhmosfL8Viephz5PnXYOSiTpQ359fu7z48QHTxro0ONDtYY4bBzstO/nx9YNeWl1rJQ5P/pq9iTfvlaQx/J8KOrzYcVGbWINNoQCA5FPZBU0eQ7cQuSpoHH1wzaSta5VYmwI26CPM23iM+HsgITgTGBaPey0tR2bwhkoMmtYR6NJHBjdb+CM8ZBZxXbWxCB4djKyMT+0I1biGY3pEou+vpIzeJ9dEsZ0M8XOV1XsM4y0Y/peRM9Y2qM1+xirHzM39m8dCqQQ0OJrNgQY69SMdsGSFW3domVt8wvPtbufeaK9sm+vMQnUbhw/Mx//ctLtSSTwTCmJJw+K5BmxgaNe91tXrIUXUrJJB4PA+WBvUYCqr1gSG1HEA3vgg5aXytimCx8GkTsKjlXbukQeO7IDNEaJBG9UZDksbNdkVOSD7UA7oDOWf33lO9v7zrqgzZo501G8tGdX+8kTD7e/3Hhvu0vFnjVzVjtMst5cA6FmkeOyOoscwTgmxN47FJe9FJXoRUYVXtQy8DCZmcWNHYcO+QjK9vQDa6KY6KCInv5VbXDRTv/0J21jh4gpiiXERycGwZNsZo7hRzf1Qj9sMMPVmKKOzYx2+KzD2tqTTm7/8a2/2hYdPR+tQ7YXdr/Wvr35vvbDLQ+1LTu3t/0H3vBOccLGwqziTTrNL14j1oqtaLBTZpzoT8Mc2UvDOQTxaCL/junItDn90/+Sowd4NmYTgD7RKmA0RnKrp1IFPJViECZBKeziefPbe846v73/nPXt6Nlz7IO9v/+NN+x79qxZ6XggyB558fl289OPtHueebI98+rOtn33q7I5MIoZ/Yxxit/DhDn38DntiMMO90zb9fr+tkdfZmzF7HwiqVGeI8xDYFt6qBooaTKOJUJuvK56eUCidPFcgJ7+BOKjRVwfDGGDrQR1SIQEW/Rd2hhIb96cI9tFS09t1629uJ2/eLkO+ygkP25P7NzR7t72hLBbW3nciW2xZvXCo45uMxPjcBXozOMX+bv77P1t4/Zt7YaHN7RvPXJfm8VvtWOmuMROahyuERc455+0rK09YUk7ce4x3pFb5O/e559u9+/Y1l4/cCBiJU+nT/LuBFZhFiV/YXvJID6Klb4maiH9+JEDOCBlGMXuRSbYmSkdrUGxJhPGqLiyjbzgUVfG+sr5KhXtl884r73z9LVtkWbwuD2584X232/+Xrv16UfNXjr/uHbW8YvbmhOXtNWyW7XgxLbgyKO6yZGahecvWm7+t1VgduqhTuHY6QuPmts+fO7l7arlp7ejDp/dMa5ctro9+9rL7aub7ml/+cgGLT1VZIonNcKeVmSn4qJnoi5yX5OpBbFUsTXOHzmj2XnNZLxYHWc6CvFFocKxiLouskwtM4GpjptcIVN71xnr2nvPvrCtW7yszdYSMbU9pkP/pscfdmDYb3lxu7472g8f29hOnr+gnTL/+HaGZi9r9pkqfC0rx8w5oh0x6/C2543XCWZakWdqZn/sgre0t516pmB7YN39SZrNH1p7mc5Y9rTvbtkYfFJQcvEDKhalEU/oQT3WBh2E2VwtYtC//kMv2ZCtqxFGDobZSFDi+3AAzuBjAJymM+s7z+522bEL2++sf0u7bMVp7cSjjwHNjcDsI8dxrZbBsmNTca8K99gLFHt7u33rY+04Heq/ce6l7Vd0JFQzDjHCkN14Jq9bdLKKe1b3+/LePe2hF55tx2qpOkWxHa4liqPhPavPbT/buqW9rEKDF5OHGmbBHC+lsNS+HKNTF8+FkX8MQxoYGvUZ3Ke1LAnWdaOnscs+AU6REVF0yV1ceKGPcMkxC9p/fse17ZyTluqMYfjReuaVne0nWza1y1esbidLh2ZzUe95xdgxCTh9vKrzYr7Pv/aKbfoGnzQRl9kmYXfZ0pW9uDv37m5fevBOr9n80H3y4re1C7XMsMafNHdeW3Xs8e2uZ59ULg5ABaJwwtTGM1rokgQfmqnarwViOpEY2FasPoNjWruUAYQ+zgg7i+j9WQlJNN6/w4LPinKwnbdkuX6sTujFpQx3P72l/d6NN+i8doblYrkhK1ijgp3FjakwJDlSTFvik9yhspFtVKYt0hJQbYdO927fuqW9uHsXGamYT7R1Jy7VksU59qy24IijzA8sBxDFPFSRVaGJyWWdYaIQDDkRRpy9Z3aeAUSEtIj7JAEjNFJsvc63HJY6YjLv5QIY/0p/4/4720e/8YX2kH79p7bCKL7Hxim8pFIAedwq5rDBNf7RONh2qJjVWBbOWrjIBZ03+4i2ZuHifvHyhn7gWD7CLjEMAXrglZ/A0yh9lN+J2mQM2MQSkWC1TJCDCyTFmEgkRZ/DxsgaxV5EE1bs0ShpaBjU8bxx8IDW0ufbrv37+mmXBaMNwcRhhWePjJkByH3Mil6FtLWNAqjYOxXKz556pF175vnWPO7Iue03117azjnx5LZQ/bOPX9JjYXZvfvE568WRHF58BCuZfjAprmgVI3lLLoU4gkJev1lUwzPYe12WY0qff/4UbjoIvrbmswk9aLCSl+FAjI0aRv6OhGlftp1GJ9UZmDE2LI+BW36S3rp1Sz/1w+gE/Ui+Qz96rL1HHBar4z5dwHCqR5HdnHfEWfVwAOm7x1bjcYzquyaJwSCWCJCRWGGgmnhhQBqHkgMU6nZHHwYkNnSGlhIzvMdT5FlAP23xFXfWdK8iQI0XCRs9LW0Ssdk8ZOjRe13F+8Nbvuf7GpyRTG0v6p7Hlx68o31TBXZLOyeVyoGVeRKLdaDhmw5sM+x10IXfzyJQiWmuQ1HHHQdBoIRpCs3HaRw+kUhqmlfO7BPQcZMQ5N26RH1USwZXUPyKP7XzRTmRTP3D9OVSep7OcTnE+MHctONZ6QWQf/xGmC66cYmf5WqIjfHTr7zY/sftP2jX7FjTrtUNpQVHzLX1Bl3FffnBu9oturhhFkvV/n1u78GQgReErAlcL0uMNfBYPPIqM59Vsa6IG8cJiplArHRDoFESvAeUx0KCUgAHZHBxxIokwUaeLbshb23ryy+1P9aV2xwdpgTP6ZcLI3VOoT6gc931uqSmcb/gN77yOV1NcqcNjyNcj0kjk1ZvXOQodvi76clH2lWnnNEL/ND2Z9stWqP3VnFZR2Xff2eGamVsqkFWlFrVxUiniqGfbYElXeKKAtMVM1gkQcQaqyLpdqBZ3Dqht7b0Yg8WwmQRgAMrpAfb3v372+O6eACbT5DwN0v4i+cd21YvPAkz/zASnr/SnYacsjhfTbWK3VS2sjugoyWWG1A5s9FdOYMpqioIVDKRmDiyr9NP4gdIrB4LwUw7T7ZOYeZpGrZO3jTsK5MoylgeSmN9uZQCoEE9PtQGU5sPGA7cfG3UxkVgTD7GNkEn9GDTXtcPxRsHuYUJ1doNdTGLJi8ch9Fo65jJ3rCJLxLDzD6E0kEvdIIKqOvSLRn8wJycwbmu4J+9iP7EISfGDH74tCD6aEl967LncBGDfgoEFnudtbaKRdlqz8MkWPwQlPU8TbCMRtjI3BI/Bs2HPWuomyDC1J4EDYPPDN1gOqbfw0DXcLFRXxoc0sYmaX1EarkomuC2jXDHutiEX4zr2M8fOQkDcSgsUaBPEJk8VCPZA4A4x+oDioO5c+a05QsWtgu1hs7RekqbNWNmO3fx8rZOV3csDXVSPy4yTyyO1yXrBUtO0SX0sbZjgx/PnAlOH7T/9Nb3DoO/SU+58UQlE3Jxq8ieKMo1SxL5Vg3GPrwjmCxOP2sXpcWYHdZncO3F0vbO9a4U4qjIUdSYcVHkKPbcw+a0M05a0q445fT2rjXnt1N1mcxspPEo6K2nnd3WSP6dhzboXsRD7cHntrZX9+5Vigfa0mOOc/HRuWL5aW1u3oTHlh9At9yp+Py7aLv1O+DTUFW4fk+qBqbiR+GqgPJcRc68YucoGmLrRVYnimf1iRk84cC7r1KhUFlOZiozFxB8arm4aNnKdtWqNe3KVWe2009Y3Atb1lAQuAH0ofVXtqtXn9VuemxTu1nP3RYeOa+9ZeWZ7WJhHHPEkWOT9sKu19qf33OLbfFuh9Hpeq/oEjd2cWf9gg4R0A7qacjL7V7d2OGHzhyJSLdm3Xgml/NaJqC9gEaTmXliUxvhhK6h6zSNEFU2ScdFTu3wLsPYcVFcinzc3Lntn115Tbtk+eq26viT+rW9g9bmvm1Pth9ufqBddsppWjJOUeHjuuaUBSe05bp79eaVZ7RjdV46f0phX9I9hB/r/uyNj25stzzxiHMkqSm1dQb/5Uff1BMKLiKIHxKFrFhRItb8GOOFPa/p8dP2yR9UzDQNp9XAFiDIv0AnzipwkrPV+LIfigxeXWgQhBOYdIDDKHLsFal1B/za/4Oz1rXrz79s4iY6M/uh57e1b2y4o92im+g8rfirh37uR0XvXbtea/EyLxksHytU5HFjNv5YN9m/Lf0HhfHCrlddhPqhJYmpZb7p8U1tjw53J+iqkgOBsoFNDv6Y59lmccjRG+deOY8nWi/6lCK7uLL3j7ScjH9TKC7lizWY4uIvpwixTToIWSRHyKG4fMHxvbiC0AXEi+2Ld9ykdfZe37fd/zpPGma0R/c92558aYeL9+ZTz2i/fdGVbeXCE/tSwmkVhf3iXTd7beamEFdwVRx5d8NHlqVYWZzgO9GKnRhJHhzPLA3JU5a1w+LQDj2KhQwHh1yT6+iWSsw76Qu/ZrSLbWNqByY4EzM4wPGCo77XEhjtCNRSg4yTpbj/5oa/aD965MEoOg7wIjTsOIyfeXln+4u7f9bue+ap9gfvvt7rtRTajbL52Ne/0A6bpVdQCDq/Lo4wHHBGnGXAzM2rqItT0cifup4gkYkKUbFH0saVUuyQGf2iY47uDWPLfQvOfIhncqKRuxo1Ikb8jqiULY4dp66wRjO4DMyfDuxZEIHag6HGG2RxSmaug8iEMkHs4ny4ihH2JMxp2pjr5Cku2aiRuOOPYRjCx4+ptgAQJ2MJqjjmOQaLpZZgAj3y8MPbNSvP1n2KC/Vg9gRZtvaU7l98cxNPrDc0bggVDpRGLAQTxU1MgrMAETs5dmCepk0xUIgBIqQpgda4EsfhRMNxOuuHJIWiEq4A2vSHFqMsiGShGTZxuEbQWAA92WBgwwRRj0LCUTGmF5l0Ap8EF+gm/Ccvv6a9deXw3A7spfMWtI9ceGVbr9e5Pv3Tv2rP7Xp5hIeGmuxjBrtELvbU4KjhxP1gFBw/gfqrsRkx1jb4ocVwojH0N4y7zKhdd8DsColrfJiOQwb+dEOrU7xx42VxXr86qJNafnjZuZ0WHx3JQwZ83Kf9rXWXtbdNKe4Y+8LFK9on1l/dZvv9jYo7aYSXMcpKmG5J8UG3z2AYsXZIEBM3aNqyN2pWIJAW+U9peNVXyuC5GSv0Kc50G5aVWYEnXPY4OmEBLdugU+0/rKfWvPVDfNFw6I+HPlTVC/Eg4PWBf6jXCapt1xnLT5/cbKzLlq1qS/TiC7Zv1oUPL7zc++zTGlO0OjICM2ql2IBWzrUmVw1c4CquiyLQONQwmJKsQMrBISuFvr+xs4wrzz5sx0Wv4md2a/S+A4X67qb7fLYR775VaTMOfFc1RvTDOiP52zZuiX7/0Qfb/7z7J75ZRLE/uPaSxnsX/Gacq4ej9+iHmYgoStXAlKkR7Cyu4tSYQrCDeoEJsmYw1Ueh9kYAMIPQCQfagoJZtN61lsyzyNJxqfq4+YY7N9urnaQbMb9z6dW6wlvT/nrz/e1beqtyux7Py0S2EYcHNuiOyvxvTYnlaZ0Fvbxnt2vwlPp739C5deOmf/M7beRrzypG1aBTy3JCZLGrhsMjIwFRlPoamTEdbYKGfGBYq2/QLj0zqZAamMYQZec+rqcZN+oKb69mDo3Q5uux+QUnn9I+8aZr2mev/cft19Zd4udmhgiYqHH2bfh3tOFM4nItC4v0csx8zdo36cp0/pzhVa1ndWkd8adDx0AtGE+h4gU7ajE5g0mfCmBGMfpMFhtDjWvZsLmRQt82mpQ8B5up9W0888BBP/ex79f+4Q9vaDc8cHf7d29/ny6lVxsEPZ5ocD/jd9/23naJkv74N/7Mr7piG6FPOr3qc7/X9uzb7wnDxuFD9Q3QTGkkg3+0Ht3/2bX/pJ2gO3ic87Lu/p8PfDxsRlvq8JMnNgVuVNRLwC+8GJHtUKuJh56Er38C8YyTYlGx+cCwjkdijG+OLzn2uPb77/lA+9ib3t6Wqj+bp7YV0JgmFue9m55/pv36Fz/TPqjvDx5+oO3UOSdXdTTWxS/dc2vevyi/GYc1YrNbd+S48vNXd946zf7ufcj2t6Dqa7xb+rwh9Jmf/bV/1EZwE13eRf7sXT9uzGDXxdlHAkSURck0qZvM+dJS7Heajr7i/E/B8/7Xjs9932fBMBtyhqCstkKXu2/WHTRuR2LD3bArdGfsslNP96wjsVe0rvFeRGAOW5CYZPyIbNMzuh88fH/b+Nw2XwVyu/KWLQ+3L//8tiiA9NAnqYuXr2rrdeet2udv+5FfynZkAe+4p8U8msH4BfHhHc8Yf9Ex833k1Ou0+7jq1JuX39Q9kc/d9RO76niyC2sH5biCFflYGApmu8BzLz/vUxVgpxHFIYpcO0JPg3V/YS5vOGoNO1aviXK3jEBO0Fp25aqz2lrdYD/ysNmejdtfe9UFGgIVTvogEl4ffXTHc+2nuo3JfQvupG3Tj41nSmSgsA+quKt8a7MS+eytN7rAqFTsJRvwLcFhIom6TjPaPdue8Esn3Hfm7IEXDe/Y9nj7yv23t69vvHsi5sIzHfkb/A64xfMa7LmNQ/1CxpWQqOY7QH2ZkNjATH3AJd+hon3qhv/d1msNvfr0c9pVp61pZ+qUi1lJO1cF5nvr45vbf/j2VzRDt5pvXIXOx0mbhr9X9+1u33rwHvtCzz6lCCRqtXV3PAROi19d+VmUS5OjMYB2F5hC4hQLLNh3Pr2l3b31CU8UYh+/+R5akfu4JokiDGl0vw7CY1xjmz9yhKOWisyaAjZbTnuhCVDWdQr3hnRvfezhtmHrk+37G3/e3rT6zPaecy5qK3V/uAp93skr2oXLV7YHfbKeOy/SVI5EAmYESlga2j8yST02h4ELQ1TVKFZkA8Z4gqDhnYk8BhE7PkDGUScHh9ueeNfH/h0bauyMjD0p9tQC5dq5UGKsU7iYwZjjCEywrZPGI1BiDEUpyaCfVchgl+7l3vnko22TZun3N25ov3XxW9qvnrveswIzlgrHYkekx07Eo5r9xdj8UaEQerbZn3QJbtQ8yg0ETDBoEwURr+dljcivcnAQkwUY1SJtp2BWDSKxKFxNlLoY6TO4Ku7wvGfkEhuHqg0JVt98bTLpmjk8Q+RkfYMOt9u0LLxzzXm9wGQX/6bvOPjGgFIg6RZmD5hICKAHEcH8wbuu832GGDmwilIUtNZe0ntnX7v/jrZBR1D8qZi9eIK4OJUv/p2W5LE3RrEIjclBG086eGHk6HGIKRuKPJrBAerKG0RazKQwczB2YDDyDOCMw6BRmLibEKdbeMrG2ReQo4C8vuY4/FCO1LPf8g9fGhaPMMX9JV39/b80nhv+++99rd219fE2i/u8FL9iAdtjh+ji1gx0DZRk5FnxsSMUm+yL9sISqdRqYsSVnGOWk6ROhmLoX35EPTJoX4/DwDInafW4a2XDKZkXnh2hC2ZS+/FYjGzlBztzrVvSvxldoT8Z+FdveXe7WG+9+6+S8AVExkC808bdaWYzjk/9MA8axqU30FgiJOWgsRNPkzCCF7NSEu2xvsczuGHvyRaH1jEKm1FjJgKPjhKRDx+C6VNMySOGKqqxbDKKbYRY3c16x2x8wWNICXOu+fyWvxWhnaW/Wvr45W9rf6ILjEd0Sni0TjF5d4NLdm6sv7Zf78jJkjxNx7Eq5piZmZ9yJZ+qQafyQ66upjaxRIhjSIxQoA4cEx4kMHx97TyL7XE6oiAY1v5Ja0PEJjiFHUsR+sOOo7gaRSwYgalmvvvTUX/3O19xgUjQDTw6OV449+j2iSveoT8JO9nidYuXt49d+kttswq8TH8udoxuulPc+7U+/1SvEWzU1SVXcI4iJ0KfEL3C5WuIrWLslBAU7jCDZUyRacQGqLYxzp6TFxvD8FUWVpMdhnzCLrhsY4xzjCvg7oOiROVtaz+MUQczYKehgvzgs1t96atrHDVZok8vKZ73vv5G++dXvF1/F7LCsvN0I53vuF2iNZo/zPn8HT/W+xq6L6wLn6oIUD1mgiESgNVyZH+9uJ4ooeKwnEsmBJvuNGpMNpSvKEMrYzD0YXU8izROltUHH8aTbj2FGOOEJ3QHY/tOSAg7gySLBk9bmcDnIp4/vvnMzd8XfRzxIRs3fJjl/+iCN7WVem/DcaFp1wSdMWdejgOZdTJGtJAnpZc/cgMzLcBHbUTFEDPZnaLFYAycRhbVJiyxHmPa1OvkGVofuQcxiTMVN3wVZtBE1mMhN2KsbjB8h2/z9me0LDwbOrn9uV6M+eLdN7eHtY7T2CFn60r0opNPdUyOFUHPr7BhpDS6Ix11ewD1ArYxpIkLCT0nhnVALHHy0DaS1IbzVHGIDPNsdJ02fDXOPVefsEhPcGf7cIY3QzNm7ZJl7T1rL2zX6AUWbrB8+rtf12P/jd7rxOAfWGjGZD8Yj5qTkZy1XIeBX+WyOJN0NoqdeybLdJevGsX95A1/3nbu3dWW6y9J/+svX+8XYZjJZ2tnf+fhOW33Lt0GJZPKV/3xcoFgOAmgJlEGlifHLBprcBXVYFGVqq9Yvbh18k2QAYwDgK3UQdXJB5GRDneprrvwinaq7r599qbvt9P1EuB1F1zeTlkYj8nR4jbiJXpx8EbdttSJKh70HQL1DiOBLBw2NLSioUGRZaW/rXbfYUWfB5f8oFW7V/8dipf0CtU+rc/P6c4ZLyPWm0bzdFeQ/0YFedSVXuSZUdVkE42JRg0koxZyUMWFxlnEiAkobfh1x2CYwZNnF2MHzsbgeLl9y2ZfNl+gHw/+0hPHl+gdNb6Hatw/5o3MBbort1NXg0yViR0nBBKY1igCZSZGes7QG0GwgyJpbuC8WH9JJJBLdVfuGzp9e+7VV/wH5+tGP3o7dFdtn/SpxMRZU8bEzqvJNkw0apHRSS8c1wwGSN9eeUHHHiHJEkKVQGSgATYkPS6ymbbhluO/+PL/ap+46l3tqtPPbovmH2t9G4423C9G97Edz7cf6qEnj+CdmYuFf+ErYN475jboSVP+Ut/llUns+EjMIbu4YUtevOe2QcvCpXocxJJ1mp4U/7d3f7A9oJnL2QV/eEPjCfUG/fcoXvUfJhrYxaoJZ0ps7NAokuvCnh1KM9jleXAy5MBF7oXTWDEHThXb4aNJPFYYijwu9sG2Zftz7ZNf/UK79vxL2/UXXdEuWrGqv5Qdxk0z6OX2Rz+4of1g0/1eh0le7hWHHjnq0dMKzWre3FyzeGm7cNmp7Wz9d33GjXitTMzExCxzAYDJ4EVf2bOn/Uj3mHl/+Ry9gChJW7HgeH8LjzOZ2596rN3x5GO+ZVlrqTEl60UGOSfbmI6KJciIxTfc56w/51PlBNAIsnPcISBHFZsaTMgioVIjCFu1jTqJv/epxx30yQt0cj96XZU/1zpcywMz5mnNZG5x8mIg95bft+7i9v7zLm3v1w66SvccuCKrt+ZxvFOvuf7pTd8j3YjDsdNNTrBDqv4Lu3bpUdHLbYn+Ewn89X/dTsWCd+du093Az9/+I11sbGMp780wwp6g+Cj8EFTiScPcomM+er2mnvhpMZVWwaP4GAIe6EFyDIaBBmptKaE/X/9Rjcv1TvCHLru6Xay1uP4Kn5nzqE6VbtO6jTmnbEu1I07Qyx/jIkTI/CDu9eH+FT2z++qG2/zQsmKz/3AKlPCCU/+dIf6TNqt1RPBO89pFS7Wzj2o7dr0ivKc0ex9tT2gnc487TCPH6lfOkaKTVTepC0Ge1nYeyDyc99HrNPvdHRVuctwDRa/rBliBTiQZ5sarINDmx2yp/objep1V/PalVzV+sWkc6vHf7AkdM0cbTuM26Zkdz+64FfrUSy94eYFfsUeuPLaSIWFGeoOcP96xSC/9zZ7texG84bNPl8YcQXv1uu0vyoFQkA2+Eh2ehSFPx+HbMUg47yPXxQxGlQ8R+jOi4QF2ygdglJ1U0VEg1sKo7JJS6PO1pv7xdR/Wf9VkOD+14mizXWv01+69rX37gXsaFwv8RREPUbU/JmOMAHoBJgph/xkjsTkL8sDRwPdoHHtiFr9TY2CaSKkHCb+JiQpG8z7ya6zI+ZnuEJ3JgAvYEgdqTg94wArYGBdOYVEjloff/5Vfb795yZt97ulffD3r+56e6H7pzlv0lvwm//cc/HqrLgJsW3CVYMZOAl5SiMM6dA4Ru9lWkFpRK/Y8K8aSF07xSTpgiuISLG1DkDHI8mgVuJSnAdmvpZPOu4MCtqXBIwic+aNNBTGiEYUxOXO4TGvzxbrZ8oBOkX6mZ3ycC4MT3wG7QM2HnU7CJyM5zaUgRJOxO5ZRPEZApXggEJs/QUMHJdRSHgPUBlvLzAAOQciP/qfv9wwupsFjEM6MMTiwKXJ9u4MQB2gwwxY1Ax6Cjnwwm2mVQIhIxtxOAwq+gbv/sh1o2QZmKnb9wd4OOv7gr/CThiD8ZpyDLzMG7BAYM+6mweDcsW/jRyfYkbrPN5F78UuqvqVQ+DGI9THRINYqWj4Yj7BIM1K1kxGGxiAktmE9NkAOLQy8wu3xDP7puUk2jjc8xLb8lLzHnnjw/S8UjWNU84VR1Fp5N42XmK0/MrI7lCtg20aA48LYoZUyEQwBT7sI1CE5vxiHbtkWDVN0gQBDX8cGh7EFgT3hA3UL4aJk2nHFMj9p10h8pICO8W0BA77l5oQfACzCpnTgWTMoOoo9blf2gEIJY5QDNyljsydpgYYjzEKOcXSTamD3hmOTekVH2IU56d/eO+aEjMEU+9Qe+HbJJiSmjiljTr6JsRIBk1HsBkTOv4w98vIW5XQRNAsMSgLZQyqFKlBdbrcFnDSzDofGcQQRRuFBs59wOEyWKP384mOQYRagkRB6VpjEg2k1axurxgF3aL7Ryw5cvrFJP4zFITYDRj9VQiftsQvzpBrFGtxBJTCQEdMY625qeTksinnZuQgZDDnbstPCN+BkMKGMQccigDQdaMeyJipY5Ceome5aaDy0UrmPHbNVyg9GxAhBAD94QXKcEiCtE0Hk/1wAO9iB02dw6gzC0ApnoKuFU3cnx2UMKHpdRT0PwhkDq5odshCnHfZTsDAYdOiFHS5CNTE7P/XDquMZdzDt/I6XfsqXUyh3tktjCI6LWjF51ZdQYpiTM3giYByG1gCWoOUgMKxkwALFsHQqXUA6Htr+FI1gCs+2MWDrQAObbuCEzoAJNr5M0Um7IOUHagls66Nou1AM/OqjY/2w75ppY9sxHn4Z64MfyOQMtoLRkaNlJVvkGEYk6Q5KCYqClVKeo1KziADG9uiEQoqNh1IkFrpmwqODunvumFGxjhRSD7Gt0oZhYsMurFARgxbysvK48xGnfWiGZMSDUbFjO6zBKIU0YwJIDE6T4OM4aY1ibGZsxOjgGI8xpWE8cGzIBh1/LLSHPoaFTlD3xnjWG7AKc6ABVHaFUxRf1k0cBvYXBu4HlgPAzK3jqy6OHYZtJKabRoU1ecNdwvEde1twBQOYaNzS5nKAe0N5gxvAvMohAq6QCN5yyUI7LyI0qCcBk09GxAefALWpB6oEXA0c+6kYobD0NZ2KbTCMopU9iVfs3VYc+4Xqn98rc0+2AudWp8w8INWegzgRMzQw0B+3mMHi4DgwROkEovlhkPxEsLb0Bhv3Qh/+yB5J7VFbhJF4IA/+BkwD2G3hWDMxMUxTrANyjJW88oUoxKkbI23N7bFVjPBLH+r/9VDqpiBiJw4gHQ8dhxx42Ikfa3BXmAS2tW0SSAgAemO8QPSWsYXTKfroeIteQpjDoONO6ljRuvi1YqeFiU7gjnUGzO6TGIwxwsF2Cm7pgxDNHOuhi3WYRB/vbpZlPzje5gzGU6omCCNDMLZd6ozHQCD0Z5AHW2OLg6Jn1dhYhp39dKoOegGYNOydHLZYJA1dQxgqoNGZEnPHQ2IAtmgFHeOKZXzx/M9wiQevdAOAEDAw7TF2jNb+L3lUIQ4yOe9tAAAAAElFTkSuQmCC;" parent="5" vertex="1">
                    <mxGeometry x="560" y="136" width="79" height="79" as="geometry"/>
                </mxCell>
                <mxCell id="10" value="" style="shape=image;verticalLabelPosition=bottom;labelBackgroundColor=default;verticalAlign=top;aspect=fixed;imageAspect=0;image=data:image/png,iVBORw0KGgoAAAANSUhEUgAAAMAAAADACAYAAABS3GwHAAAAAXNSR0IArs4c6QAAAIRlWElmTU0AKgAAAAgABQESAAMAAAABAAEAAAEaAAUAAAABAAAASgEbAAUAAAABAAAAUgEoAAMAAAABAAIAAIdpAAQAAAABAAAAWgAAAAAAAACQAAAAAQAAAJAAAAABAAOgAQADAAAAAQABAACgAgAEAAAAAQAAAMCgAwAEAAAAAQAAAMAAAAAAXwPYXwAAAAlwSFlzAAAWJQAAFiUBSVIk8AAAIhNJREFUeAHtnQmYHFW1x09190zPko2sEBIhEiCCbLIvYgBZBRGQKC9kg0AUERCfiKjvjX6CuOEnuEAgCdmIJC4IGiKioGBAHosIIhBCiARITMg+M5menq73OzXdYSbbzFR3LT1z7jc11V1dde+5/3v+95y7logFQ8AQMAQMAUPAEDAEDAFDwBAwBAwBQ8AQMAQMAUPAEDAEDAFDwBAwBAwBQ8AQMAQMAUPAEDAEDAFDwBAwBAwBQ8AQMAQMAUPAEDAEDAFDwBAwBAwBQ8AQMAQMAUPAEDAEDAFDwBAwBAwBQ8AQMAQMAUPAEDAEDAFDwBAwBAwBQ8AQMAQMAUPAEDAEIkPAiSzlEBOef6GbXLlZUtn1kqjNiFPdLE5Vf3E2cU5nxannSFVJrneFuFvWiquiVdVKbuVqyR00TFpGPyotjjje9RDFtqRCQKDbEECVfN3rkk5WSlU6JemmFqlMcmRTMiDhyp6Sk6HgOcBxpNZ1JI2a16DSaT7XKs58rufUnBOp53OW+zbz27sAtMrNyUqnUlY5zdJQwW+5pGQam6SpvlIyG5+QpjpxeMxCOSJQtgSYf6Bbua5K+lRUSx83I71zCdknIXKQOHKAHlTXe1c50ivJRZcvnoZyLlTj254LQBTOWpiQgKjyBx8as0TlyDsQ5FXiXEJkr3DDEiJf3uTKJqdCNieaZPOUZ5yGclSGnihz2/KOff7vONztS909MOlSq4schhJ+WBJyQqUje6W40KKKXjjIjSp+KUOBEAlQIznxznxWs8GxnOSe4Yenk448l22Wt5NpWderWdaMecJpLKUcFlfpEIg9AWaMdqukUYa3UMOT7VNQwo+geEem8wqvSq9HlEFBLJAhlUe0sUXW8/FvWIg/Q8Rncjl5szklK6943FkXpayWdnsEYkuAO492hyRSckDOkePw4c+gVj2hAmmzeYUvde3eHpbivykhkFkqIOqWFs8aPYvoj7tJeQIX6l/ZRllirlLxOBcbQ+wIMPNYd0+6XI7F1z6HzJ1XlZTeWsNncTMiruh9Y60ga1tErYO6aM0t8iz5e4hjcUtOXpqy2FnqO3J7sCgEYkMAXJ3dcy1yBg3Ks3EbPlaVkKoMSq8K060CiCsR1DLgJmnP06Nk8Q/JnPx50mLn790qr2WQmcgJUEdvzrD+chZuwVjwOocaP90tFX8HyqBuUsEqYOWehO+/w7V7+LK/Ok/u4Ha7FAACkRLgrhPdw/BrLkH5z08nZaj2pnS7Gr+jQqMEtBCUCGrscPWe5+Mizj+/3CxCR+gV/btiH0lA+Sfg7lxD9+WhKkDUPTmRgLBNoloY2lbId+X+jTbCLypSMm/Cn5y3oAc/U1VYKCkCoRPgjtHuwFROvk4uPlWZkCHq7lhoj4BHBP7R49XE6X5Mw82XPOY82/4u+1YKBFKliKSzccz8sHswvR4/xM8dTc2fUOUPnYGdFTbi+9Qi4halOZ8CRgsRxwgQQJmERoBpp7jHtrTInSR4oBYuXePeVIMA8tRtosz7O1k3YfVEUIWKxxl8mHqSe3oiK/ckUX4dyMoXbPAJl3sKah4TOP+OQRZUUQZuAaZ9xD2Pcrw9kZDBXkPXfJ7Ol6ViZbVF5/HycWegBJg22j2CMpyKmRnoKb8PAe0RQyBIBAIjwNyT3b2YIvwLCDDQ6+ixmr/r5VjArHDuegz2RAcIBNIGYNpyTcaV35H2XmbBOygB+zlSBAKxABV95U4Uf1SkOesOiVvNH3gpltwCTD/FvRipP8FBp48FQyDeCJTUAsw71R3amJOb6bWuiXe2y0S6ggUwPzKwAiupBWjIyXcpqyGBSWsRGwIlRqBkFmD6ye5xTNc6nSm+qbiv1ioxhsFFV7AAJa2mghO3HGMuGQGcpFwPAP1N+ctRDXquzCUhwIzTXV3JdTS1f8Imd5ZQmQoWoIRRWlTtESgJAdwWGUfDd0A51P6FrU3aw7Dzb4X2Zznkbee5sF92hkDRBLjzNHcESnUEtX+Sqc6xCgVl17MG5NONrTaz4EQ3rmrmuk5K9TaaYKmJSq9dt3ro/MsU83DU+05zVDEjs5rpybqK0Zueo4RQcngEKbCE7yUNBQtgbYCSwto2sqIJwAqmsZT/Ht5SxkKBtU0hgs+qpXqwxJJdVeRttHQVYqx1EvIWBHiNrQ6XsQh9PXJv4YbN/N7QkpIMWylWJzjYg6iSrVj6cG8akgyEHHvyeShMGUp8vYmrlnM/nt+Nz/0qoIxyQDEoEIOvxQcSsRAsAkUTAPFOYv8bb+uSYEXtOHZVeq3tmXj3Fkr+Mlr5Ek/9BaVcfOkfnLc7jqHjO+pGu6n3V7JRlyP7Q5IPsCXjKIi2l7qAPL0HyQ+FEE5+WWPJd6frWEK7oysIFEWAu850D0PR9qDwI1/apVsjspB8JbX1HxHnN2w78vuLH3Q2dgWMztxb96iT5b5l+WNR4ZkZp7mjcJgOxVU6gpVuoyDiXvw2AjLUqnVQ91DPXQoFXLv8YJdS6dE3F0UAdO4YlH9wlOWjNb7W/CjYHynJacsXyb11EezWPOkh52XS1+PnPxnt9qpJy2F8/hDW4TAwOgQX6mC2c0x4q+EUsChBI3kLrQgURQD07gg1/V7bV2urKALpUiVPw825efLvndeiEGHbND/3qLOZa4/pwczYisrBcjgEOI4Zskeg+EdiFUYqATrc7a6AaeG8bUL2vWgEfBNgxkS3yl0le2sDkK3+IgnejtA5uZ3t1b581e9L7+6UIlPs/9lMPLrR1ZNzP+buxnsLDs+wzymu2mmppByrHTy6H5I2ni2Ej4BvAmRXywgav32jqv3V7aFX5jF2Xf5qXJV/2+Ic+ztvZ+iHuf7wjLPc+1D84yHCWVjRMytT4mhF0o4HhZq/3cVtY7XvxSDgmwA0MoejfH01cfXDww6qEy1Jue6yhc7asNMuRXqTFnr7gP797jPdRVQiR6H8n8KinatYqkXQoJ8hiIUAEfBNAEz2XsjVL0DZdhq11v7oyAOXPcD++2UeJj7o7Qy9dO5Z7mIU/ze0FaZUp+TozLbWoMzzGVfx/Y8xujKIGqrGq6DUAoR4eNsHiszoTvXj2IXO8okLnRk0qSY1NssXGUdYU1Xh4coYe1zVp/zl8k+AhDcaWhkFBEq6XKMsjiLtoNMc/zvnX7W18mNM3CfqM/Jr0tNxBN+WOmh5yz1+38BS4VdT6/t+3i9wamho/K7b1F9KPsjlV6ZSPzdmgZMhzr9O+7i7jDbAaD5327yWGruuxufbAlAr1agrorVxqKHV1dqw2+rwkw41nyR26f3O25k9ZEGvKm+QL+zke0R6/mtwh5ecKH1CZ4DXO9La9ugBRTRlqjeOoGMJFgJAwLcFoCJu8maABiDUrqJUvpH24NpB3jTlXd1qvxkCHSLgmwDE3KAT6b0xgFa3xNPMMHqD1PVqapKjMD+asgVDwDcC/gmQ4O29jkRimtXyMB15QgTel2+g7cF4IuCbANS9OuEr462ZCtkCeFOPHBk77Tw5MJ6wmlTlgoB/ArDoBL3fGJkPQsK04OfOOs2tLRewTc74IeCbAPRPL8cFWs8yw9B8/7btC68xzBz7lhqZ9z0jQfw0q0wk8k0AFPAN8rg+MgtA4toWoCv2nIG1cv/0c93hbh3rsSwYAl1AoCj9nXG+ez8zGM/RhR1RBqZl6+jwCnqkPp9JyCNTFjgbopTH0i4fBIqqMdG751G8LV5XaIR51mWGkGAYx68rczJ95vnuSdMvdAdFKJIlXSYIFGUBpl/Ay+8c+RmRjIhiUGxHGOsKNV1dhVVaqLLlsvJibYWsYn5N447ut2s9G4GiCDDnTLdPc40sZGDq+DhtiqUWiQU73tvnkev/aDz/ktmVf6bXaPm4Xznv9Owit9y3RaAoAmhE08e433dyciURpal4YxU0czpqrGuHtzTTYHfkQazDI7hMr/C2+rfeWC/L89ucxEpuEyY8BIomwMwL3IMZFPsl3aEjWSIZ26CryNQ90gxvyYouo3yKQbzH2NfoH7mkvIGDtJzZl5timwETLBAEiiaASnX3GHcOun8RkRXVqA4kh20jVROlQnKoVdCjoZm59q48z6XnIfI/ueW1lCtLxy9wlrV91D53TwQo9+LD9E+7R7Mv+i9wMYbFpTHc2VwpGdRN0iPLHAsaz2/gJr0IUV7ieJ3Pr9KQXnLZr5wVnY3T7isfBEpCAM0uVuAWalBtC1RoL0w5Bm0865iCrnPQc2PW21z3VSzEq2yi+wKXXuS3l6qz8nJ+1VY5ZtNkboMAZVqaMOs8d3CuUv5EhAeWqf5vB8RWQpAptWzs2rAKi/E6Ny6l7fAC485PNbTI059b4O0Et93zdiH+CJSMAJrVuy90P86rkubysVd3IUHbIvTcJRBTYrBtSQYXSbdiXMq8qBfoBPhL4yZ5bMoDjr57wEKZIFBSAmie777I/QqR3lSublBny01JoITQg02tdIb2G5D+da4/xZdFl85zHu9sXHZfdAhQfKUNumeo0yR30agcG6fBsdLmsn1sCqISQUlBI1qnhqygAniF8yIs4vzxs53/tH/CvsUFgZITQDN2z0XuwGYXEiTl3KgnyoUNtEcGGtFqAWk3rOP0DkR4xG2WOyYtcF4IWx5Lb9cIBEIATVJJwMzM2ZUJOUO3+euJQS2CWgYsYRM9SWv4/jhrSH86+R7nLz0RjzjmOTACaGY9Ejhyc1VKLmX0tccGBVnJQM9Rlq7iDViFxYmU/O+EWc5zPRaUmGQ8UAJoHqdd4vZOZeRapiHUNUMCCr9HB48Irtdo3gQW9/GugBumzLEJelEpReAE0IzlG8bn0VU4jYGk6p7SON5VoSrwtBOydKWuhQjfmDTX+emu7rffgkEgFAKo6PMvdJOb0jKS+WhTeRnEiZke7BLtoCgzmMbF0GHyxHu97dJ3cItdCgKB0AhQEB4i9GqolCuo+b5BA7Gq3OYOFfIR0HkN8V41cY4zL6D4LdptEAidAIX0cYv2xhP+Nhbh0zGeRV0QN5Sz5xY50oRrNHX5bLmmLoK3XYaS0RglEhkBFAPXdZ3Z4+U0ekm/wXSCo7AKGiKVyZMgwn/5zLugcH91L7l4zE9tnlGQxRETZXOdGePkbFyi6+kmPBx/uALBeBF7zw35btNFTdUyjh2i1TWyEAACMSFAa85cNrudebGcwyzLqxlMPQxXoDc9Ryzl9XpMAsh+fKPUgsl3mS7MNMsll81zVsVX2vKVLFYEaAvjjLHuMcmUfJb2wQlcH8jRR0dVdYpBT7EMBRLQUTCvvkEut2nXbTWkNJ9jS4BC9uZPcgfVZ+UCFlt+CmH34foAiFCjvysRlBDdOagVIKO6E/0tNQ1yAwtxeujEkmBKOfYEaJvtORPdI7MO79J15SQsw578Noh1va1kQEO6a5eqLtdk8PBdsnjdpLud6W0xsc/FIVBWBGibVbpRR6MXJ6MUR3N9D3pN9uD7QF3OqLtT8NetfKU0LaGmrDxDfidDgr+3xcI++0egbAnQNstTJ7gHphNyAu7Ch7EC+/HbcD7vrrs+qFVQQnAq+6DburD45taafnL9mB/aTnelKNBuQYC2QNw9wd2HnqNj1TJwHEAG38/ve6d56bTOQdKjXNsNeVfoP8j/WazAr9rm2z77Q6DbEaAtDLhJu/OW9WPI5OEeGXKyP67SKNyJpG6oW45kqIbIvEl+bqJZrrWVZm1L29/nbk2AtpD85Aq3V3WjHM52J4dz/YMcB0GGQyBDxVbLwEW1Dl7PS9uHY/JZZVMrgEun2zyOHz/NeSAmopWtGD2GAG1LSKdnJ9PyQTcrh6JIh6JXhwHEUcxSTXlkoKORa7ENagUaMvITFth8DVdofWwFLQPBeiQB2pbL/C+41Zs2yH6VWAVGoLXd8BGIcLACo1O249he8NoCvKONNvEnL77LebJtfuxz1xDo8QRoC9ecsd527/ujWGoVPooZOK+qUiqUCHEbY6jCCmxpkssmTHPuapsH+9w1BIwAO8FrzmR3GMsVD6T7/XSUf1JNWvqxxXpsLIJHgGaZzrYrXxl/u227spNi7PCyEaADiGgv9EtVyAHMUv0kVuFK3CPPInTwWOA/57tElzIt5IJxdzjPB55gN02APgULu0JAG5nj7nQWt2Tkm7mEnMbMzIU1NBiirjm0sQ4Z96E7d9iu5Lffdo1A1OW4a+li+Ku6Ri0VMp7FCjeqeFG2DZSI9U1ydc06ud12q/anLGYBuogbvS4rWKP1I2reySh/VqdoRxV0MI/0RzYPlNqoZCj3dI0APkqQEdj6wZUyhykX13C0DpwpEUI+1PrgCe3b5EgvH9mwR0DACOBTDc66zWnKpmQ+vvidOs8oiqAEYCBvpJM1C+AXfyOAX+R47pLbnNUo4Fy2fVydYPAgbAuA/muaA0ib1oAFPwgUQQA6Bi3onIl/oYQP6FTlsINHAF5GwhoIb9102Ol3h/R8E2DWFXL2zCvcK+682h3SHYDwmwcdhKIh+rT2y4dtATQ9tqCvyLUYAfyWn28C0PrKkOjXKxmNnDXZHeFXgO7wHA3RlfUZacEdCjXoPCVtf5gF8A+7fwKo0XVkc3Vazsql5bdzrnaP1P0//YtSxk+2vhVmo0cAJUGIhy4BZRJfVRmjF6no/gmQL2fWqeob2A9oycrDDYNkzJzPu30izVEUibfS3vEUP+T0vXZA0rPGIafc+eSQsXIJ29qsYEcPNjcaspo13BxD9azf32Yt91qRvsskfCIX13iiptNaT1+DRH94H16EcU9Ts0yd+1n3O0uGyBt1dQ6/dP9ALVJDRvt6yqi1f0hBk2KNsL54Q93RWAWwSK0U2Y26YRhKfkJvkeMQ8INc35trvdRkbeFA/Cbw+zcZeLla5AnufbRJZDnX145ovSXQfBVHgDaiqT+qsyWZpXh5I1OJR6yRK6dd5z5+6XedTW1u65YfmSM0tKZCnAZKLtQAA7DAOUZz0Jd4BNQgwQqd97GX4/Eo9uUcJ+owtTJUhdQaETXxviuB+Z39DGRfPVDGc9SYEsc/ON3NmwV/uwFy7Es2+R5IIF2fQSXVHGxz6KuQUkl5P70TC1ONcv3sq939u3PbYNZn3MHsU/QhnZawLRZBf1fri+WtZ2VbLAigrgzHGLT119T4c2ifn6iCaQ2oGoxqeARQqDToWQmh15Ug+oJlvZfnDub5W/jtcc6XE+f7uBxI8E+AXYijMxV1lJLFJDewfvWBhiEyftaV3bOnKFEl+zIi8tFsBCroNbpdNsyKQRsAd+eDKNNNKOy8ShYU6TpNVeqCsu9CXbb7SS2EEoE6djBzPG4l3hm4Rsdud2MJLhRHAH16GwtQ+K4ZV5cIS7BvulKm01MxdeZV7rkzP+cOKIHcsYhCl1NC9rOrK2VYFBZAe4DAexn41kcJCMp5POlPo/fjMq3FVfFLEbRO2cwBoXQDtPveYQkoZ9W4koXiCNAJMdQaaEOtIsUSQ5EFDNncOOca98xZ/+0O7sTjsb6lsUXOoDg+E9XrnjwCiCxrynjeQyRY4aefgFLOpAF71MaAJFBCqTVA86djaSaUMpniCKA+aCcOFVhdBEZLK2gkT8E9+jktoe/Mutq9cN6V7tBSZiisuGZf5R5H3r9OfvrlJ6V1CovO4NXZe3T0mXuXDRoQjQWgRj6A+u12auh96PgINKg1gAS9UbcfYHHOL1VixRGgIAVSFVyfXZ1VUXTcgJqrDyOYE7l3BjMqfzTrC+6lc7/k0tgvj0DD/lRcuu/TxjmMFWL6NpdO5T+I+yjAJefUOep5hBqo+XuR7R+h/AeWyuXpKANKAvLbHzW6EUtwUEf3d+b34rtBtfCRqFNB7yVsJYIjtamUfDKTkbMZSHti9hfcJ9wW+WuyWZ4Y+zNnXevd8fmvm2v1SculdPlOgcAf0DYOSp3PVbhy6kKcxoxoW/ONcFNuTY0i/yLK89GwlL+Qx7yq7U/2/4fPn+asvPAdiiNAoegL5y6Kgfn09t5hOm8VXacn4SadRI/GsmxCXph5rfscyw6fbEjI01N+EO0rgh6pc1MrNsq5EPfTKP8ZtGd6MeDXWut3Mc+lup3OBcll5W/0GVIZhxveEtkf5btSuy/DDkoAss4SCDmFjI/l66xiZPBPAH1SNViVP09Lv4KoRdCGpEaFXzsCMoxAwT7G5WXVLbJs1rXuq4x2PssNL74r8sK1Ie2MrGMYuDon/XuDnIpsR7CN4vu0LaON+mjq/fcQhoSSzcpT/XoJLnG4AQW8jhQj681T+JFhN9Tv4jfpWBmOMfSLgH8CaIqqsYXDrwRtnlMeaXci7pA27pK0FUZCiJEo3Kn0ta/G7K8cJPIfrMNy9vhcAhCvQb6lvFHvzf8q0krc+nk33bdC9uL9KyPoqTqEeD9Ebb8PTueIyoQM8EiqyGvQPEcYNHl1v8DoubD9f2rd3SkirZwiRSGvdgfQBjkTOHzvlF0cAQJUAo8MUFy7UTVAhEEU+CD1fXXuEQq5ie+MlMtG3h+0GStRj9Kuo1jegSwbsE66gex6Gk2N3JujJs/gUumMjd78qyGaan7XOTzaHfs+nh3A0Zuqpbd+Jr0+/O69W8Cr8VWImAQspFqhxbg/L0cgkvbF94sg3XZJqlogx56czuKIiAB5GoZRF3g8IMfegBM5ZgqAdonpWyS9oKJoLc3IczNTE5q53sxXPbx6m2s55OTVxKhNQi0or2F1JcVzaSxNhRKLez2G6NlLRz9o0MhjFCqYK9CclQeH18iSsMUCko+TJhJEG7RoqP11XtF++IBDWJXlyxUszgKoYhSOkPFQADz99P69lziKr4XD1LT39DbPEe+mtp+9Czyv5FLytAsxU/qCbFgmYfHN21D4yZPqtC0YXgCiNFqmLx3BmEYf8lZgD+Q5BGke8iNRcQTwk2LAz2wtmK0f8kQJON2woq+E3i1bZFGVdgqEHN5G+TGd1SEnu9Pk8gToDwHev9ObOvjBPwH0SVUyrSn1sBA4Alr70/e/ijbO/bwjbG3gCW6TANwbidL515lt4iv2a179+nAe5jeu7TwCvxHZc8EjoF2fFPZ9/XvJH4JPbfsUSFu7PmOlM1ikFHL5bpQXz2azANtrSgBXtPan6/M1CvtXYXd9FrJD7a/TH2Lh/6tMYOE1+Ojl8O2WxYrNBaDt3B4BrWPyjfQFE7/n+GrstY/R3zftfeVJPLD4BCUBoTBC0/qtC/+LswBKH7MAXYDb363Ml9J+/4UVrvzYXwyleQoLoOsO8jpXmjiLiUVVTxlJ8D0Z0CxAK4Cx/a+uD8r/KlXcbRd916EjJrqAKCtQulC7XneVWyUApNRpEL7nQxVnAVQ6swCKQiBBR6IZkNtMnTtj0necRYEk0oVIqfpf5chqkcch5OXYwHmFX3nMAvhFLuDnVPkZqeY1ZTJt/HecmwNOrlPRM9r6Ojeuj4sPlFfe1VjHlzqVgR3c5N8C6GQCRUJpqIeFkiGQV/4WWpv3Nr4rXypZxCWIiCJ/nOLem6j8604J5NAoVO2Q5609WrdR8RWrbwvAlANdCpL0pPCVtD20IwQKyg+u9yU3y5VTpjr5dt6O7o7k2nxSDXsdzHYZVeVHiC2cn+bwLY9vAmCe11BIS3W2prc4WyWyoygMqFS0RmuCBHOZ7Dbp4tucoNaZb6dQnb1Abfsg9/67s/cHdZ86IIRlnO9r/ejvv28CjL/ReRqFv4rCmgkH1ioJtPay4A8BrxJhajdPT21YI5PjvKMexXwbh+++d38IvfeUqhldUTo08gTrQ55575eufyqJys7+qns5JJhEZMfoXPUWoEE4C51AQCsN7epkpdlrVCjTx3/L+XYnHov0Fso2Tb/jUwhxcBTlrLU/+vYK0F3EYo7nigGjJARQAe6pc0exkuszaP7JrFf1VuwrESzsHAFV/PwI70Mo0g/HfSv6rs6dS9v+F7ZEOQvluZejV5gkUJcFtWqCBN9E+W9qL1XXv5WMAIWksQbH4cuOo41wOjsnjNA1tIVVXYV7evpZF9/oohY2tFpBrT8/nZNbxtzovFVuuLA1yU10BX0lrJExVdY82ebTMzBxeBFrgQtYl5wAhYhn3+B+jD6iT/D9DPbPGaZE0MPLQWCpFlKP4ZmSU3dH5/Oz4L8BHH7LMX/cjc4vYyhtp0RiWLqGGvkOZqJdrMOxQQZVGa39IdsjnCfnxySKTjJQVVx4q5tes0ZOYzniaAr7ZGq9Q1UJ6OHwlh4WLX2ZROApPlWlri1myeZDTKecz9TmX4+pC39Of6khwwrgicgPqiCB9kXim5c8qJJWcrDD9J9QnWuHiTzPV71ctPcVKAEQ0Au6PXr9fnIkPu8xXDiDRE+uqZIK3QrFazBrNkKRpFWeUP6TJ+3ZYeNaaWxiRNf1luw9yL5HD42rc14LRYaQEsmT4AaSuzrNPxS1ZEFH21Q1INdMoPwuCxJ8j/ruSKjQ1W7G19x9IYJaAiXDaHTkQ7hI3r5A3aH3SP177QnTxSv1W4RtjOR+asXf866cp+jhWbajQugO18hoH+qzi+D9NX1FRum0Ub77DtrTo5P8iWcFcd4CrPfg9qzyHeFOHgydAAU5eHtM73Ra9ma4fz8ofhw15KnJlBykPjIbPnkN53JpPKvS605tntI3egNZj9AJ8DCdAc80N8k/L/m2w+uwekbAGhwNHOdD+gm7sVuDtg10KLszrhGVobfARa0IAyLrOc0irp/jYz3FWVuQJQ/EG32Y/2W3b6aaPV4c2Quv7hCU52hYfwyWYXdVLrUMuk0J/nMs2g4FhdduTPXvt2S8/YmeBMk/8c7ev7UkZXnmbXkrhtMYQilsxgi0a/QgiutEIDqbz8exZjFRIALftwZVQK3tqffY1IlXzTK4xe8LOT8KEV7mOS4HFzT9WAV96URjjfRPVkjfnCPDsQyH64GlGIWwH6iuEgeCeBaiQAj97h0lzIkCo8qth/ryntJz1sLDp9fa6Vl+0sJ6ipp+GWRYz+uhVk+qc7aUUIyyjgpsqrAIu4MT3gu77FF+HHtyvQ/Xkpy1Vt8ArG/y+RWOpVxfDVFWDi9BFydxdxhIL97hjjq3Bl+wF0jVIGkV2yDuSc0yClIcAGD7kYGhnHfnVa39tcG5lRSaLX5oc2pnPVSxNWwFgA+ewnNNFZ4dqyXTIrrzwjtcf5n0/oUMr7A661Veb7gukZJ6aq6N9OToS0wsdIAARZHAD6wBVrZYFXa2pCKjhCjbLG5SEwxp5FpnPKUOUuraz1vLv2uPRXv3rXSv9l8r6UylpN2MN6aUYqfkCqeSmsWVYRxD6DTGekollqGG72mUuJpR12pq8grOzZwbKYAMJGmEBRk+b0bv17CV3KpUQt5J5GQTCp+lNsr2xsvZUitNw+ulKezNqKJFuvunXpYE2FWxaJfruo9KYniTJFatFae2jzjVG8VZVytOVb04m6rF6d0oLgqNqmNShlLrvImJGSG5N1+U3DtDpaWnvN94Vzjab4aAIWAIGAKGgCFgCBgChoAhYAgYAoaAIWAIGAKGgCFgCBgChoAhYAgYAoaAIWAIGAKGgCFgCBgChoAhYAgYAoaAIWAIGAKGgCFgCBgChoAhYAgYAoaAIWAIGAKGgCFgCBgChoAhYAgYAoaAIWAIGAKGgCFgCBgChoAhYAgYAoaAIWAIGAKGgCFgCBgCgSPw/3vJ2tkdLntjAAAAAElFTkSuQmCC;" parent="5" vertex="1">
                    <mxGeometry x="564.5" y="10" width="70" height="70" as="geometry"/>
                </mxCell>
                <mxCell id="23" style="edgeStyle=orthogonalEdgeStyle;html=1;entryX=0.5;entryY=1;entryDx=0;entryDy=0;entryPerimeter=0;startArrow=none;startFill=0;endArrow=classicThin;endFill=1;fillColor=#0050ef;strokeColor=#001DBC;" parent="5" source="11" target="4" edge="1">
                    <mxGeometry relative="1" as="geometry"/>
                </mxCell>
                <mxCell id="11" value="" style="sketch=0;points=[[0,0,0],[0.25,0,0],[0.5,0,0],[0.75,0,0],[1,0,0],[0,1,0],[0.25,1,0],[0.5,1,0],[0.75,1,0],[1,1,0],[0,0.25,0],[0,0.5,0],[0,0.75,0],[1,0.25,0],[1,0.5,0],[1,0.75,0]];outlineConnect=0;fontColor=#232F3E;gradientColor=#60A337;gradientDirection=north;fillColor=#277116;strokeColor=#ffffff;dashed=0;verticalLabelPosition=bottom;verticalAlign=top;align=center;html=1;fontSize=12;fontStyle=0;aspect=fixed;shape=mxgraph.aws4.resourceIcon;resIcon=mxgraph.aws4.s3;" parent="5" vertex="1">
                    <mxGeometry x="304" y="340" width="78" height="78" as="geometry"/>
                </mxCell>
                <mxCell id="22" value="Prompt + &lt;br&gt;Inferrence Parameters" style="text;html=1;align=center;verticalAlign=middle;resizable=0;points=[];autosize=1;strokeColor=none;fillColor=none;" parent="5" vertex="1">
                    <mxGeometry x="400" y="130" width="140" height="40" as="geometry"/>
                </mxCell>
                <mxCell id="24" value="Generates pre-signed URL&lt;br&gt;and send the URL (expiry 5 mins)" style="text;html=1;align=center;verticalAlign=middle;resizable=0;points=[];autosize=1;strokeColor=#0000CC;fillColor=none;rounded=1;shadow=0;glass=1;" parent="5" vertex="1">
                    <mxGeometry x="134" y="260" width="200" height="40" as="geometry"/>
                </mxCell>
                <mxCell id="26" value="Prompt sent as Event" style="text;html=1;align=center;verticalAlign=middle;resizable=0;points=[];autosize=1;strokeColor=none;fillColor=none;" parent="5" vertex="1">
                    <mxGeometry x="170" y="150" width="140" height="30" as="geometry"/>
                </mxCell>
                <mxCell id="28" value="user gets pre-sgned URL" style="text;html=1;align=center;verticalAlign=middle;resizable=0;points=[];autosize=1;strokeColor=none;fillColor=none;" parent="5" vertex="1">
                    <mxGeometry x="-50" y="200" width="160" height="30" as="geometry"/>
                </mxCell>
                <mxCell id="21" value="Stores Image in S3" style="text;html=1;align=center;verticalAlign=middle;resizable=0;points=[];autosize=1;strokeColor=none;fillColor=none;rotation=-90;" parent="5" vertex="1">
                    <mxGeometry x="470" y="290" width="130" height="30" as="geometry"/>
                </mxCell>
                <mxCell id="30" value="&lt;font color=&quot;#000d00&quot;&gt;User Downloads the image using presigned URL&lt;/font&gt;" style="text;html=1;align=center;verticalAlign=middle;resizable=0;points=[];autosize=1;strokeColor=none;fillColor=none;" parent="5" vertex="1">
                    <mxGeometry y="400" width="280" height="30" as="geometry"/>
                </mxCell>
                <mxCell id="13" style="edgeStyle=none;html=1;entryX=0;entryY=0.5;entryDx=0;entryDy=0;entryPerimeter=0;fontColor=#0000CC;strokeWidth=1;" parent="1" source="12" target="4" edge="1">
                    <mxGeometry relative="1" as="geometry"/>
                </mxCell>
                <mxCell id="12" value="" style="shape=image;verticalLabelPosition=bottom;labelBackgroundColor=default;verticalAlign=top;aspect=fixed;imageAspect=0;image=data:image/png,iVBORw0KGgoAAAANSUhEUgAAAMQAAADECAYAAADApo5rAAAAAXNSR0IArs4c6QAAAIRlWElmTU0AKgAAAAgABQESAAMAAAABAAEAAAEaAAUAAAABAAAASgEbAAUAAAABAAAAUgEoAAMAAAABAAIAAIdpAAQAAAABAAAAWgAAAAAAAACQAAAAAQAAAJAAAAABAAOgAQADAAAAAQABAACgAgAEAAAAAQAAAMSgAwAEAAAAAQAAAMQAAAAA2YtZUAAAAAlwSFlzAAAWJQAAFiUBSVIk8AAAH7xJREFUeAHtXQmcFMXVfzW73MghiMolKkIUEciyu2r0E4MxRqJGI5HPI0YlyB6iMRoTjYloBI2KisupIonizSdeoFGReEV2UREBJXKJooJyyLUcu1Pf/01vO7O7M7M9Mz0z1T3v/X67M9PdVfXq3/3vqnr16hWRiCAgCAgCgoAgIAgIAoKAICAICAKCgCAgCAgCgoAgIAgIAoKAICAICAKCgCAgCAgCgoAgIAgIAoKAICAICAKCgCAgCAgCgoAgIAgIAoKAICAICAKCgCAgCAgCgoAgIAgIAoKAzxBQPqtP1qqjiRSV9mtDe6g55bUMUGBfgGqCiqrbVNP6hbvUAqrJmnJSsGMEhBAOoNK/6dWS2nY6goL5fUnpPkjSHX9d8dcNNOhCmtrjcz9wIhAzO6334dx3+NuAv424Fp/6M9J6FQXVKgroT9Xkqs9jppcTGUFACNEAZj28eyvqfHARHvDBFFAFeHAH48E9PO7D3iCPpH9q2oK0HxIFF5NSVRTUbwpJkkYzqYQ5Twg9nPLogILjKJB3Ct70J4MIxXj4WySFZloS6XXQ5w2qDb6Mv5fU9Pe+TUsxkmkIgZwkRKgVOPCg04kCZ4IEw/A27uSN50EHSaPlIP0c7at9AuRY5Q29vaNlzhDCagmKh6KvfgEeqnPQErT1zm2KoanWIAc9TrW7H1FTl2BcIpIqAr4nhB5VcDDlB0ZiPDAKXQ8eDPtPeMCuaA4G6NNoUtV83FQYvUSSQcC3hNDlRYPxWFwLUM5Gl6hZMuB4Mo3WK6D3nbR688Nq3so9nqxDFpX2HSF0WeFQtAR/AgnwmcOi9dfAYSJVb61QM1Zsz2EkEqq6bwihSwtOIJU/Hl2HExJCwO8Xa81WqfG0c+NkNXPtbr9XN9X6eZ4QevTgoykvACKon6cKhq/Ta1pPKngjVVTNxE2XMUaMm+1ZQugLittRh+BYTA6Xo275MeonhxsjUEk1tVeoqYsqG5+SI54khC4pvBCtwp24fQfKLUwCAa25hXiQdu69Vs1cvDWJHHybxFOE0OWD4D/UbDoGi8N8e0cyWTFNX5IOjoZ7yPOZLNbksjxDCF1a9GsK0L0gQweTAfWobo/Q3ppyzHyz82FOi/GE0Jf23Y9atZ+KQfP5OX2n0l55vQbu6iNyfWxhNCF0WcEPYUp9HM/CEWl/HqQA2J4w463pzzS58g48GDlpiTKWEKGBcyBwP+YVWsqzmmEENM2mbdUXq4eX7MxwyVkvzjhC4LUUoLKi29BFYrcLkWwhoGkJ7dG/UA9UrsmWCtko1yhCwBGvNTXPe1KsSNl4FKKUqfUmdKPOhBXqnShnfXnIGELosiKsSVAvoouEBToiBiFQTcHgeblimo29BjiDdwQtQ090kd4SMmQQdOdFtYI3wDMwe1/mPIl3r8x6C6FHD+xFeS0WgAyHeBfGHNE8qK9Qkysr/FzbrBJClw0CCZr/W8jgpUdMj1EVlfd5SeNEdM1alynUTaLm0jIkcreMuFZNRPeJHSp9KVlpIfRl/fanlm15zHCkL1H1e6XYOVDRhWgpHvVbVTPeQoQiXrRs84KQwcOPklIK89gzdWnxqR6uRVTVM0qI0KRbl65PwKJ0XFRt5KB3EOB16opmY4HWIO8o3bSmGSUEZqDHgQxnNK2WXOEJBDiUT17gWT3yaN+sS8nYGEKXDR5BKu8x1290K4RUPQIvqW7w/9tvf0SBDBJt30z02XKi1R8S7ZVlxK5j3jjDt2nDjh+rp5btbXzKW0cysvRSlxYOxOTODFeh6d6X6CcXEQ0YQpQXoxp7dhEt+hfRSyh6q8TxchX/+pn9iLq0ZVPs5fUPe+9X2lsIfdExbahdy/fRVerjGjyn/5bop5fADdBhj49biWcnEb3xlGsqSEZREAhiPcXkqieinPHMIYdPVAr1addykqtkYFXemo2uULVzpZrDg3z474lG/NF5GrkycQQCajrmlxAp3buSVkKgq3QByHCxa/AcWxdpZhvGCDcPJ9qdoLv+j35BdEaJa+pIRg0RUO2oWd5jeoh3o6DkNaySW79DAQFU3ovwYHVngc/QC4h+dS1RawyiP37XaiHefZ7o+LMRd6C5c7UPG0C0ajHRpq+cp5ErnSOgVDfq0m3v2Mr1bzpPZM6V6WshdPMpIIM7AQHadiTicQPLkPOIfvk76/t27C9y87lE1Tus307+Y06Jzr7KyZVyTfII/CUUQC759FlLmRZCINDw+Zi0OdO1Wp08Aj6AEQ1NJCl2MCkS7D51h4n2B0WuqScZNURAYZ+9wEOhidiGpwz/7TohMKhqjzrf42q9B/24cXYNSTH2l4m1FIOGNs5TjriHgMJWZOVFo9zLMDM5uU4Iys8fi67SAa6p3xGToAf0sLLb8BnRtk3hrOuRYmti3afDjgnnI9/ShIC61VoJmabs05Ctq4RAKPp+HCLAVT33P8jKjifZbv810axb62ffkBTcUuzaXv+aaL9skkU7J8fcQgCuA2qcW5llIh9XCQET6wQoHWPaOMnqtKkbl69ZSrQP+3906904o0hS7PyurqVoghQ8u53frHFecsRtBC7TpT/0jJu/a4RAHKWT8DY41W00qabOPSYUnxe5s+9SNGlIirFNWJ9qsY96bW20nOSYmwgo7PKq8hs0624W4G5erhECe7ilp2nc9KVV40Pwkglg2mTJAo4wFx0FJkX/E61z3FK8+nD06/go+zZhU0+RDCCg1NmIwlicgZJSLsIVQsCT9XR0l45PWZtoGfBAmh/u1u2IeHJu7TKir9dEu5Jo/qNEH9XNB7VsQ/Tj86Nfx0dXL4l9Ts6kAYG8m9KQqetZukIIuHVf77pmkRl++G/r15mlRLe9THTwYZFnre9MhmcmWt+ZDDfCka8NW4BjyJK6PGOclsMuI6DUaSGvZ5ezdTu7lAkBsxqvfvuR24rVy2/+LKxzqOvvR3vIo5GhHQwcsWTz1+h6vRHrrBxPFwIqcF26snYr35QJgRnpP7ilTMx8uNv0n+ejn06UDJzLHLQkNsGi5ypH04PA8FAcrvTk7UquKZlI9ciiQ7HY/CyQIv3C3SGeTIvsLiVDhsp5RB/MD+vbp4DouLOQd39rnLID4xVeaff2HOszfKV8SxUBtjjlNR+NbIz1w0/pUcZEHNZIB/6UKk6O03fqSjRmMhFP1iVDhuX/IZp2jdU6sJPfcWcSnXoxEecbTVZUEc29Xwbg0bBJ+pj+hlZt7mHqpvJJEwI+S83g+74O1qW6qeSkEUosIXu+/vCU8Oo3ewAdb8zAZtp/zSR6YVrjspgYRcOsBUQtWjU+z0fef5VoNtyztn0b/bwcTRABfYGpMZ2SJ0Rp4TlYwjk7QSTcvbw5HuC/QoV4ZPikkuj5KUTrPg6XfdChVquwcR3RN59bx3mNdjm6ZdEG7XwFu5gzKRa+EM5HviWHgKZX1KSFpyaXOL2pkidEeTGT4Zz0qucg965w5TjqWCL+5LkKfuN/hzf5FyuIlmMh0bdfhDNp0ZroNzcTHX1C+Niily3/KJ4R794HpLgvNik41YcLiB4dB3+pbeE85FtiCGiqpX01PbDJo3GrtJIihLVpOm3AYDpikUJimGTl6ovHEg3+aeOiP1lINB3GspCv1BFEV1TEJwWbbWfcgFA3mCQUSQ6BoL4akcTvTi5x+lIlZ3btELIseYsM3L3isUc0+UExAqjciaWoLYjWf0p0X5k1Ox7tWj7Gg/qrpmL25exYV8jxphAIqBFNXZKN88kRgujcbCibUpk8+GZfqFjStxCkuKuOFCubJgV7yo64zorkES/fWOXl+nGtCzFzjTeLWZIwIfTPercgpYeaVQ0H2rCF6Nv18S/sO5ioZIK1XHU9SDERLcWOrfHTcCQP7mLx+EXEOQIcMBkxUJwnyMyVCROCDu10EkaueN16UJ64HS7fNfEVPwITdSXo2vIa7i8dkqL3IKJrHgyv7Itfgpy1ETAwzm/ihED8C7s+nvtkE+zkq5pee80PeAlMrDzu+GqV1VJwhI94wivwfv8AZrwHxLtKztVDQA3RhsVwSpwQAVTBi9Khbpn3fxcRTfgtEVuK4knvgUSlIAWbapkUPNBuihQ8h8FzGQNOjpeznLMRULQf9StAk2yOJESIuoga/c1RPwFNdldbMZ04Ca+nuOsyos8/iZ/B4XjbMylaMilWo6UotSKLx0vFlqpLbyU68ZfxrpJzNgI6YNTbIyFCUDMFN2+VWBq74tn+3L0DsZhgXuUgZzye4+gd95QQLXs7vmbsUFiKtz6TgonEA20Otx9POAgzRxkcNireVXKOEVCBE00CIrGHWweON0n5hHX5z3NWK3HZeMu8ygGTp+HBfev/4md16NFEZZjBZtNtiBRoKSLD4cRKfdqlROdhwi9kUIl1Uc4fh2nPHEmMEEphtOlh4VVyvLZiwBCYSidZs9G8rvqJv1vh8mOt1eYq9+pnuXW0agtSrLVaCiekOOEcIp4hl7kKRrGxKOqC+YgejU9k50hihCDCSNPDwg/8PFiCWPitz1ahzt2t3xyQ4KE/w30DPk2x5JCjQArMOXDkjw1rnZOiAH5so0C6/Oaxcs7t4xzlzxBxTAgMqDvDdynGwgFDauNEjfdeIVrzkXWlbSrltz/LB68RVZTHd9vo+QO0Lug+8URciBQOu0/9MPwqvdsy5VqlyX8bAa3xdjJDHBOCmgXwevSJPHlneIKubQer+3QM5htZOBrHXSPhFh7hJWudCf/vAVKwV2yIFOiC3YvBOXvYNiU86cdk4m6XSBgBpfqGf2T3m3NCKDo8u6q6WDq7hr82K5whz0rzQPukX1nHeI3EBJCCowXGkh64hzwOYVLwugo2yTohRS+8DO3xS6y8c++4BwkRVP4hBD9wPJZgz1Zb2FR67tXYO2KMdYR9mHgybvHr9hWNPzms/pi6wTmTItRSfNP4uoZHmExXTrF2TW14Lhd/K+pjSrWdtxABOswUpV3Ro2YfBtE3Nt62l4ObXTrOGgDz+ogZ12P99mOxi+TtgHmdN3e9uGW5l1sKB6TgYAlMinadY+edM2dUu9AaGwPq65wQWJNmgL7uqsCDYja5NhTej8IeI7Bl6pl7iZ7CuIP3wI4mXdF4hkjRMUwKJ9sAH3gI1lWAFB26RMs1t461qTHi+XJOCK38edcq5yJgwdONHz5222CzrB2Rg6+5/7rGLYqdkt/4TArePN5uKZyQgi1dV2KxUUfjlgbYNcvMZ7NAt8wUFL8U54RQdGD8rDx8djbMoSsXN65Al54WKXj+gWXpm3D3GB17lvrgQ8Ok4LXc3H3astFKG+9/Z7wcrwSZ9j843lX+PqeUEc+XI0Kg0xBAxG30B3wqHMXvAbz9oy0g4jc+v/mPPtGqPDsEslk2VsDlg3rVjQ06WQEOJsIk64QU3BKNnoAylE9BbrJaMNdlXxwRgi46phX8cfx9pzjC+FRYmaJF02Cz7G9vC3uwbv4KZtlRRJ++H/0O8tjAHjAzyUKk2BD9Wvso75BUAasWQiHmpGhqb0K9nREiP6+1CcqmXQf2c5oOZz+2LjUU9kViD9Yz+aGFVG8nmjSGqOol63fD/9zd4m5Q+wOslodNsltikILJwBu88Ib0LLzraqec6z55qIVoodtYdyoH/q/6kOgfN8W2KP3kIsR2usXajouXo/4T1778UHRgQqSYAisSSMEbv9yL8UfDhUlMBt5r23Yp//nliHZ1FbppSJdLpNC6eXQQM3vUWQsRCORnVq0sl/bh6zDH3h5biYKfwB18Ynh7Lw6R+eitYXeQyJQHdEdLMRVWJIwZN6Grxd0nmxQ2GeyW4Qyc++klVmoOdZNLpFBmrLNxRgidF8MAH3nnffb9nWfhEl4Ru1K87vrq+8OWIQ7Xz2OQ3Tsbp+kMiyI/3GxaZVJw94lX4HHLYJPhF1dYgZcjU4dIgW5XLliftEKfNPvikBD7co8QfG9efQQuHg/GvktsUeK5Cnb2Y+EgBnejyxPNqhRpWuVB+bjzw2TgloG3C4smTIZcN8lGwyVNxxyx8qaiHvvByvS7NOlgdrZsSeKo4LE2eucgBBwek/2ieEKOxwIcLbxPIdwyYHqNlNZYR8HLWN+cHXkUcyAfWHvjcR68P0UzdKc5YIFt2OP1FwNOsnY94qDLfhRFC8ZWrn8t21VzZErVJf07Ul7rOhNItlXOUvk80GXrTyzhuYwn77A2WuFrmCiXjSM68thwCl6yev3PifZE6VaFr7K+sYt4z6OslXq8XoMnB9n6xZN93ML4TYLBv6jJVbBWZFecEWI4dn45sBgmlRyXs6/Ezqb/Gx+Ef/3DCr/PV7GpltdUH3+W5fJxw7DwGIPjzC59G8dBEqfC3ScO/c87sfpNgsFrQIi7sl0tR9Yj9RTV6nKN15pHI/a5hTI7+fEa7Fj9fS6HdyRii9Ksv1lWp8fGW12pt54Jk8HeZJ5NvBw4zSkpuGXwY+tg3Z9tbt2mVPJxNqi2StiSSkG+STvnvvqLi6JVrPA0mGVBHntlHA/ObeuTTQZOZ8d94giBuS4qsNEECBIghMLMkkgIASbFK/+MDwYvFz3/hvrX8IOfh0aZPWe5u8SmV15kxMHQcp0UQew3YoA46jJZemoQwtGQw4BqZUCF5zA/wBE6Th8ZvTC2GM28sf457hpFLl21z/Iy1DxHBj87hQ8/g0a0EM4JofX6782APrwdSVWJl6HybLO97NTOhMlwxyXhmWv2mOVxBa+k24muMm/fFSnRHAojz/v+OwZm3+76woRqJkAIWiMNRJRbxtsDszl0+DXWvEFDMoRCYaJLxGZYW3j56perrH2w131ihbNhsrDD4F7klWui1efqqWUN3hLZAcE5IZRakR0VPVAqT7Tt3W1F7eAgyvYeFNHIwNXh3Yc4vhP/NRSO3MEbx/OOp07WZjdM78XfSuPtYIY4J0TN3hWhPdjM0Ns8LRa+iC1750IvbekWiwxNad6+M9GgoZiQ6295x7KXrN9Fq5WmVNG5lWnF4jW42UY0a6aA11iPOjL0PNKyHEV2kxpfHP9Ixy7WSr2ccOwLokk0QxwTQi2gGrz8lpihtuFafL3WcvRLVc2Qt+ska0Ceal4mpw9q7xGiDs/3TMbVGN3YvPrAH4lenI5Gta7VSFY5XmvNa7rtHZCSzcfUdBoA7d1uzIvWcQtRh+ciU3E1Uq+XZlhLUqvh9ZKKhNZTgBS+DGqmPlEzVsC8ZoYkRoja4LtmqO0VLTCRufQtor9fTPTFf1NTOhS/iUnRKbV8TEutCACZI4kRYuqiZegCwC4o4gyBuu4Sx2ji0DVvz3GWLNZVvEabAyXzRJ9fRNObJlUlIULgfcd3eIFJFfCMLjw7/fhtCGDwV2t2O1nFD+oFUlRYsWSTzcOkdLV7vEuIEI5av24Snp7ShVfALXqZ6LaLsKZhafKqc9hMJgWvqvOyaP1fNXXxWpOqkFALEVJ8r5pnUgU8pQtbnJgUHLyM117zem1eaZeMdO1tbe/FjoGeFT3XNNUTJoR6oHINek4pvN5MgyDD+thmWI4kPvd+KwIHr8VORth1nKOU85prT4oPCBHCXdNznsTfKKXRWvASU97Ca/yFGJk9Hjs4Wjy9efOV8onWlsHxrjPunN5Gq7e+YZpaCbcQoQoownpIkZQRsLtL7C3LznwcrymZ1oJdRThwGm8u7xXR9IyatxIVN0uSIoSqqFwE8+sKs6ricW14JR17uXJrwYEKbI9Zp9XiyByl99Z3M3eaNhvXaY0m0TxJihChamg9y7zqeFgjmwBsnn1+CtHtvybiIASJyKHwkC252/zlqDyXtbzq1USqlqlrkydETfBRtBLoCIu4igBDyq0Fr7e+B5YojtrBofqdCgcuKJkAUrR0miIL1+lHFDuLGihJE0JNf48Xdcw3sE7eV8luLZgYHGOWQ+X/+0nn3SiOO3v5XYgA2MJMLHTtdDMV452BUhGt4VwjkjYEmBgcFHv3DqKn8dbnCb0VVc6K61MAUtxp7abqLEWGrtJvqsnvf5yhwhIuJjVCLK96Ds4cmGUSSRsCHBiNu1H5za1tvCquIJpyNdZkr2y6yL6FRKPusJasNn11Zq7QQaNfoikRoq4fCG8zkbQjYEfq4G7Q8nes1uKRW2LvSmQrdGQx0cjbzSCFps9o2aKnbdVM/EyJEKEK7asB4zHJIpIZBHjOgoVbDF7HffNwzGHAsrRtk3U82v9+xyPw8nhrsB7tfMaOBSfUvUQzVmKiBcGxJnXR5UV4Bak/pJ6T5JAwAkwMbj245TjhHKJTLoy9ZmLJG0QP/il5/6mElauXYDN9V91TPbxkZ72jhv2A70DqctPgrkvhtFaGnJqlnpvkkBACodluvNfy0NjzvAWHxOGB+OEDG2fDu6PyQiPeMizTEgzerB78IAsFJ1bR1LtMKA9hzL/GwA++AyLZQQCDbg6rycKWKZ7Yi7ZCjwOkcWC1zMsGqgl64vlwhRAhfIPV6DbprZnHWkqsh4DtH8XWqUhhorDLOW88z8IbuXB3KyOib8W81a6MFJViIa4RQk35aAsFNUghknUEeDzB6yVsscmwbrl15H8wEGcXj5BJNs2k0LSSNuycZqti+qdrhAhVdM0WoKx5BlskmwgcAkc/nuVmYTLcM5ros2XW79MuRRza36Ofi3EHm2TTTYqgvsqUuK0WAPH/u0qIkDuvpqviFyln04YAx4xlOay/9RkiQ0l4uSpvCTZslHXO/p9OUmiaq6ZUvmgX5YVPVwnBFVaTKl/AAPsFL1TedzrW1lpV4riyTAbeJH7tR1ZrwJu3xNofLx2k0LSbavZ47uXoOiGsO7KvHC4d2333wJleIXsgzV2mibCCrwYZArjFl9xKdNwZ8bV3nRT6JjVt8afxCzXvrCsTc9GqpUuLLqeAmhrtnBxLEwLN4PKt0Upw/Cbef4LHERffbG3ty5uy8B7Xu/Ce+v47jvFv3pci9InzXyFdqntha72INlYey5t1pqmmacs2fYRAQ01lRa9g8DY0bdpLxvURyMMYggnBAQyyJogQXxMsUFMXLc2aCikUnKYuE7MBnSatL4Fum1PQT5ImgkAtJt6ySgYoq9V1XiUDQ522FsK+j7qs+CyUMsf+LZ8+RgDGFBhVmhismF3/tLUQdrXVpIXPoq3wxLS9rbN8JoEAr4vZV8s9Ak9L2gkRQmfjjmvRfXrH00iJ8nEQ0HsoSOfCPcPzgbAzQojQTOWeXeegg/lFHFTllGcR0CVqysJ3Pat+hOIZIQSXpx5YugEWkLPwtTqifPnqdQTQHVYVVQ95vRq2/hkjBBeoJr33PtXq8zGm8Jx92gZMPiMQ4JCmGxdeHXHE818zSghGC74tc2B1KvU8crleAR4Tblw/wouTb/FuXcYJwcqoioXTYS//SzzF5JzJCOjltHvnGeqpL3zX/c0KIfhWY5XdLaSD402+7aJbFAQ4pu/e2lPUg8t8OeGaNUIw1GpS1fUwx46LArscMhEB7PiDuYaTYV79ykT13NApq4TgCmBm8wYMsv/mRmUkj7Qi8AnIMMTPZGD00u664fQW6bLCMVDnHjgDGqOTU919f52mhZhDGoaX1ya/19Woh0+XFp4Hl/F/ghhpXujr99vqav3mIZ7ScNPjKblVY6MIwZXSJYUngRRPo6Xo7FYlJZ8kEdB6Gi2rLFeGhq5PslZxkxlHCNZWjx7YCyFS4CGrBsTVXk6mC4EaWADHwOiBAE+5JUYSgm+BvuiYNtSu5Qy0FL/KrVuS9dpuwILsEapi0YKsa5IFBYwlhI0F4saOxqKTuzH8N3lLHFtdb39q/RrM4BeGIjF6uyZJa288IbhmurwAcVXyHkcX6qikayoJ4yGAEB36JqqoHI8HIpvrT+PpmJFzniAEI6GHd29FXbrdQkr/DsTI+vxJRu5OJgrRhNAcNb8JOV5mojzDy/AMIWwcdVlBMam8GdJa2Igk/YmBM91GG3fc4qXIeknX1mFCzxGC66V/1rsFHb7/Nbih12PQ3dphXeWy7xHQ82mfukJNW1gX7PX7Ezn/xZOEsO+aHlncHUNt7CxI59nH5DMOAlp/jtfJNTCnPhnnqpw+5WlC2HcOM9zHYzIPToLqJPuYfEYgoPUmWI/G065vJqmZa3dHnJGvDRDwBSHsOunS4lMx6P4bulGF9rHc/uT9OtR9tIXuVLMWIkyfSFMI+IoQdmXhKDgUpPgDHoZT7WO59am/wvjqbqr+bqqasQJxKkWcIuBLQtiV15cXDaB8hRjw+rzcGHzrdzGJOZlWb3oytDWBDYR8OkbA14SwUdCjCtpTs/wL8XsUZrwRK95XshnjgyfwNx0zzIt9VbMsVCYnCBGJqx49+GiEiB+BFgOtBvWOPOeZ75oQplvPJRWcRXv1PCzaQVBXETcQyDlCRIJW16U6Hcf47zgQxJVtiiPLcO+7XgenirnwQn2O1m6dL10i95CNzCmnCREJhC7p35FUyxPQcpwIYpyIQWkBvmdn322tsc+uWgU93sVGlgvQHXpdTalaHamvfE8PAkKIGLiGZsMP6XAUBuUDSQcG4rIj0U05HCTpie/YicQl0fpb5LkCD/0KfH6MFuAD2rnvPTVzMUymIplGQAiRIOJ6CMhwZGFPPMAHU16gC97iByKLTvjdBsRpTQFqjdYlH/MhQVh8EKGQdzAJ9fl5HmAbuj0YBKsv0f9fT3u2fylm0QRvgFwuCAgCgoAgIAgIAoKAICAICAKCgCAgCAgCgoAgIAgIAoKAICAICAKCgCAgCAgCgoAgIAgIAoKAICAICAKCgCAgCAgCgoAgIAgIAoKAICAICAKCgCAgCAgCgoAgIAgIAoKAICAICAKCgCAgCAgCgoAgIAgIAoKAICAIpA+B/weHGJtxEtIe1gAAAABJRU5ErkJggg==;strokeWidth=1;" parent="1" vertex="1">
                    <mxGeometry x="28.5" y="255" width="40" height="40" as="geometry"/>
                </mxCell>
                <mxCell id="27" style="edgeStyle=orthogonalEdgeStyle;html=1;exitX=0;exitY=0.75;exitDx=0;exitDy=0;exitPerimeter=0;entryX=0.5;entryY=1;entryDx=0;entryDy=0;startArrow=none;startFill=0;endArrow=classicThin;endFill=1;" parent="1" source="4" target="2" edge="1">
                    <mxGeometry relative="1" as="geometry">
                        <Array as="points">
                            <mxPoint x="180" y="320"/>
                            <mxPoint x="19" y="320"/>
                        </Array>
                    </mxGeometry>
                </mxCell>
            </root>
        </mxGraphModel>
    </diagram>
</mxfile>